<mxfile host="app.diagrams.net" agent="Mozilla/5.0 (Windows NT 10.0; Win64; x64; rv:136.0) Gecko/20100101 Firefox/136.0" version="26.1.0">
  <diagram name="Page-1" id="fuvHp79-YwKWyplJIFux">
    <mxGraphModel dx="2245" dy="1722" grid="1" gridSize="10" guides="1" tooltips="1" connect="1" arrows="1" fold="1" page="1" pageScale="1" pageWidth="850" pageHeight="1100" math="0" shadow="0">
      <root>
        <mxCell id="0" />
        <mxCell id="1" parent="0" />
        <mxCell id="lsWeMRMcMJrD6qDPierP-2" value="" style="endArrow=none;html=1;rounded=0;exitX=1;exitY=1;exitDx=0;exitDy=0;entryX=0.5;entryY=0;entryDx=0;entryDy=0;labelBackgroundColor=none;strokeColor=#182E3E;fontColor=default;" parent="1" source="lsWeMRMcMJrD6qDPierP-85" target="Qz-s-i5MB10RdGnWVDxn-89" edge="1">
          <mxGeometry width="50" height="50" relative="1" as="geometry">
            <mxPoint x="710" y="-385" as="sourcePoint" />
            <mxPoint x="817.5735931288068" y="-103.28427124746213" as="targetPoint" />
          </mxGeometry>
        </mxCell>
        <mxCell id="Qz-s-i5MB10RdGnWVDxn-130" value="1,1" style="edgeLabel;html=1;align=center;verticalAlign=middle;resizable=0;points=[];" vertex="1" connectable="0" parent="lsWeMRMcMJrD6qDPierP-2">
          <mxGeometry x="0.218" y="1" relative="1" as="geometry">
            <mxPoint as="offset" />
          </mxGeometry>
        </mxCell>
        <mxCell id="lsWeMRMcMJrD6qDPierP-3" value="Author" style="ellipse;whiteSpace=wrap;html=1;labelBackgroundColor=none;fillColor=#F5AB50;strokeColor=#909090;fontColor=#1A1A1A;" parent="1" vertex="1">
          <mxGeometry x="460" y="-220" width="120" height="80" as="geometry" />
        </mxCell>
        <mxCell id="lsWeMRMcMJrD6qDPierP-4" value="Genre" style="ellipse;whiteSpace=wrap;html=1;labelBackgroundColor=none;fillColor=#F5AB50;strokeColor=#909090;fontColor=#1A1A1A;" parent="1" vertex="1">
          <mxGeometry x="510" y="-390" width="120" height="80" as="geometry" />
        </mxCell>
        <mxCell id="lsWeMRMcMJrD6qDPierP-7" value="" style="endArrow=none;html=1;rounded=0;entryX=0.5;entryY=1;entryDx=0;entryDy=0;exitX=0.25;exitY=0;exitDx=0;exitDy=0;labelBackgroundColor=none;strokeColor=#182E3E;fontColor=default;" parent="1" source="lsWeMRMcMJrD6qDPierP-85" target="lsWeMRMcMJrD6qDPierP-4" edge="1">
          <mxGeometry width="50" height="50" relative="1" as="geometry">
            <mxPoint x="677.5735931288073" y="-263.2842712474619" as="sourcePoint" />
            <mxPoint x="770" y="-305" as="targetPoint" />
          </mxGeometry>
        </mxCell>
        <mxCell id="lsWeMRMcMJrD6qDPierP-8" value="" style="endArrow=none;html=1;rounded=0;entryX=1;entryY=0.5;entryDx=0;entryDy=0;exitX=0;exitY=0.5;exitDx=0;exitDy=0;labelBackgroundColor=none;strokeColor=#182E3E;fontColor=default;" parent="1" source="lsWeMRMcMJrD6qDPierP-85" target="lsWeMRMcMJrD6qDPierP-3" edge="1">
          <mxGeometry width="50" height="50" relative="1" as="geometry">
            <mxPoint x="660" y="-235" as="sourcePoint" />
            <mxPoint x="770" y="-305" as="targetPoint" />
          </mxGeometry>
        </mxCell>
        <mxCell id="lsWeMRMcMJrD6qDPierP-11" value="Name" style="ellipse;whiteSpace=wrap;html=1;labelBackgroundColor=none;fillColor=#F5AB50;strokeColor=#909090;fontColor=#1A1A1A;" parent="1" vertex="1">
          <mxGeometry x="-210" y="-125" width="120" height="80" as="geometry" />
        </mxCell>
        <mxCell id="lsWeMRMcMJrD6qDPierP-12" value="&lt;u&gt;User ID&lt;/u&gt;" style="ellipse;whiteSpace=wrap;html=1;labelBackgroundColor=none;fillColor=#F5AB50;strokeColor=#909090;fontColor=#1A1A1A;" parent="1" vertex="1">
          <mxGeometry x="-40" y="-90" width="120" height="80" as="geometry" />
        </mxCell>
        <mxCell id="lsWeMRMcMJrD6qDPierP-17" value="" style="endArrow=none;html=1;rounded=0;entryX=1;entryY=1;entryDx=0;entryDy=0;exitX=0.5;exitY=0;exitDx=0;exitDy=0;labelBackgroundColor=none;strokeColor=#182E3E;fontColor=default;" parent="1" source="lsWeMRMcMJrD6qDPierP-82" target="lsWeMRMcMJrD6qDPierP-11" edge="1">
          <mxGeometry width="50" height="50" relative="1" as="geometry">
            <mxPoint x="-110" y="30" as="sourcePoint" />
            <mxPoint x="-110" y="-30" as="targetPoint" />
          </mxGeometry>
        </mxCell>
        <mxCell id="lsWeMRMcMJrD6qDPierP-18" value="" style="endArrow=none;html=1;rounded=0;entryX=0.5;entryY=1;entryDx=0;entryDy=0;exitX=0.5;exitY=0;exitDx=0;exitDy=0;labelBackgroundColor=none;strokeColor=#182E3E;fontColor=default;" parent="1" source="lsWeMRMcMJrD6qDPierP-82" target="lsWeMRMcMJrD6qDPierP-12" edge="1">
          <mxGeometry width="50" height="50" relative="1" as="geometry">
            <mxPoint x="-67.57359312879726" y="31.715728752531504" as="sourcePoint" />
            <mxPoint x="-110" y="-30" as="targetPoint" />
          </mxGeometry>
        </mxCell>
        <mxCell id="lsWeMRMcMJrD6qDPierP-37" value="Genre" style="ellipse;whiteSpace=wrap;html=1;labelBackgroundColor=none;fillColor=#F5AB50;strokeColor=#909090;fontColor=#1A1A1A;" parent="1" vertex="1">
          <mxGeometry x="700" y="-430" width="120" height="80" as="geometry" />
        </mxCell>
        <mxCell id="lsWeMRMcMJrD6qDPierP-38" value="Publisher" style="ellipse;whiteSpace=wrap;html=1;labelBackgroundColor=none;fillColor=#F5AB50;strokeColor=#909090;fontColor=#1A1A1A;" parent="1" vertex="1">
          <mxGeometry x="920" y="-560" width="120" height="80" as="geometry" />
        </mxCell>
        <mxCell id="lsWeMRMcMJrD6qDPierP-44" value="" style="endArrow=none;html=1;rounded=0;entryX=0.5;entryY=1;entryDx=0;entryDy=0;labelBackgroundColor=none;strokeColor=#182E3E;fontColor=default;exitX=0.5;exitY=0;exitDx=0;exitDy=0;" parent="1" source="Qz-s-i5MB10RdGnWVDxn-89" target="lsWeMRMcMJrD6qDPierP-86" edge="1">
          <mxGeometry width="50" height="50" relative="1" as="geometry">
            <mxPoint x="850" y="-100" as="sourcePoint" />
            <mxPoint x="850" y="-415" as="targetPoint" />
          </mxGeometry>
        </mxCell>
        <mxCell id="Qz-s-i5MB10RdGnWVDxn-131" value="1,1" style="edgeLabel;html=1;align=center;verticalAlign=middle;resizable=0;points=[];" vertex="1" connectable="0" parent="lsWeMRMcMJrD6qDPierP-44">
          <mxGeometry x="0.074" y="1" relative="1" as="geometry">
            <mxPoint as="offset" />
          </mxGeometry>
        </mxCell>
        <mxCell id="lsWeMRMcMJrD6qDPierP-45" value="" style="endArrow=none;html=1;rounded=0;entryX=0.5;entryY=1;entryDx=0;entryDy=0;exitX=0.5;exitY=0;exitDx=0;exitDy=0;labelBackgroundColor=none;strokeColor=#182E3E;fontColor=default;" parent="1" source="lsWeMRMcMJrD6qDPierP-86" target="lsWeMRMcMJrD6qDPierP-38" edge="1">
          <mxGeometry width="50" height="50" relative="1" as="geometry">
            <mxPoint x="912.4264068711927" y="-303.28427124746213" as="sourcePoint" />
            <mxPoint x="870" y="-175" as="targetPoint" />
          </mxGeometry>
        </mxCell>
        <mxCell id="lsWeMRMcMJrD6qDPierP-46" value="" style="endArrow=none;html=1;rounded=0;entryX=0.5;entryY=1;entryDx=0;entryDy=0;exitX=0.25;exitY=0;exitDx=0;exitDy=0;labelBackgroundColor=none;strokeColor=#182E3E;fontColor=default;" parent="1" source="lsWeMRMcMJrD6qDPierP-86" target="lsWeMRMcMJrD6qDPierP-37" edge="1">
          <mxGeometry width="50" height="50" relative="1" as="geometry">
            <mxPoint x="843" y="-311" as="sourcePoint" />
            <mxPoint x="870" y="-175" as="targetPoint" />
          </mxGeometry>
        </mxCell>
        <mxCell id="lsWeMRMcMJrD6qDPierP-47" value="" style="endArrow=none;html=1;rounded=0;entryX=0.25;entryY=1;entryDx=0;entryDy=0;exitX=0.5;exitY=0;exitDx=0;exitDy=0;labelBackgroundColor=none;strokeColor=#182E3E;fontColor=default;" parent="1" source="Qz-s-i5MB10RdGnWVDxn-89" target="lsWeMRMcMJrD6qDPierP-87" edge="1">
          <mxGeometry width="50" height="50" relative="1" as="geometry">
            <mxPoint x="902.4264068711927" y="-103.28427124746122" as="sourcePoint" />
            <mxPoint x="977.5735931288073" y="-406.71572875253787" as="targetPoint" />
          </mxGeometry>
        </mxCell>
        <mxCell id="Qz-s-i5MB10RdGnWVDxn-132" value="1,1" style="edgeLabel;html=1;align=center;verticalAlign=middle;resizable=0;points=[];" vertex="1" connectable="0" parent="lsWeMRMcMJrD6qDPierP-47">
          <mxGeometry x="-0.0588" y="-1" relative="1" as="geometry">
            <mxPoint as="offset" />
          </mxGeometry>
        </mxCell>
        <mxCell id="lsWeMRMcMJrD6qDPierP-48" value="Genre" style="ellipse;whiteSpace=wrap;html=1;labelBackgroundColor=none;fillColor=#F5AB50;strokeColor=#909090;fontColor=#1A1A1A;" parent="1" vertex="1">
          <mxGeometry x="1060" y="-365" width="120" height="80" as="geometry" />
        </mxCell>
        <mxCell id="lsWeMRMcMJrD6qDPierP-49" value="Director" style="ellipse;whiteSpace=wrap;html=1;labelBackgroundColor=none;fillColor=#F5AB50;strokeColor=#909090;fontColor=#1A1A1A;" parent="1" vertex="1">
          <mxGeometry x="1150" y="-265" width="120" height="80" as="geometry" />
        </mxCell>
        <mxCell id="lsWeMRMcMJrD6qDPierP-51" value="" style="endArrow=none;html=1;rounded=0;entryX=0;entryY=1;entryDx=0;entryDy=0;exitX=0.75;exitY=0;exitDx=0;exitDy=0;labelBackgroundColor=none;strokeColor=#182E3E;fontColor=default;" parent="1" source="lsWeMRMcMJrD6qDPierP-87" target="lsWeMRMcMJrD6qDPierP-48" edge="1">
          <mxGeometry width="50" height="50" relative="1" as="geometry">
            <mxPoint x="1030" y="-285" as="sourcePoint" />
            <mxPoint x="870" y="-175" as="targetPoint" />
          </mxGeometry>
        </mxCell>
        <mxCell id="lsWeMRMcMJrD6qDPierP-52" value="" style="endArrow=none;html=1;rounded=0;entryX=0;entryY=0.5;entryDx=0;entryDy=0;exitX=1;exitY=0.5;exitDx=0;exitDy=0;labelBackgroundColor=none;strokeColor=#182E3E;fontColor=default;" parent="1" source="lsWeMRMcMJrD6qDPierP-87" target="lsWeMRMcMJrD6qDPierP-49" edge="1">
          <mxGeometry width="50" height="50" relative="1" as="geometry">
            <mxPoint x="1072.4264068711927" y="-273.28427124746145" as="sourcePoint" />
            <mxPoint x="870" y="-175" as="targetPoint" />
          </mxGeometry>
        </mxCell>
        <mxCell id="lsWeMRMcMJrD6qDPierP-54" value="Publisher" style="ellipse;whiteSpace=wrap;html=1;labelBackgroundColor=none;fillColor=#F5AB50;strokeColor=#909090;fontColor=#1A1A1A;" parent="1" vertex="1">
          <mxGeometry x="530" y="-135" width="120" height="80" as="geometry" />
        </mxCell>
        <mxCell id="lsWeMRMcMJrD6qDPierP-55" value="" style="endArrow=none;html=1;rounded=0;entryX=1;entryY=0;entryDx=0;entryDy=0;exitX=0;exitY=1;exitDx=0;exitDy=0;labelBackgroundColor=none;strokeColor=#182E3E;fontColor=default;" parent="1" source="lsWeMRMcMJrD6qDPierP-85" target="lsWeMRMcMJrD6qDPierP-54" edge="1">
          <mxGeometry width="50" height="50" relative="1" as="geometry">
            <mxPoint x="677.5735931288073" y="-206.7157287525381" as="sourcePoint" />
            <mxPoint x="870" y="-175" as="targetPoint" />
          </mxGeometry>
        </mxCell>
        <mxCell id="lsWeMRMcMJrD6qDPierP-56" value="Date_Published" style="ellipse;whiteSpace=wrap;html=1;labelBackgroundColor=none;fillColor=#F5AB50;strokeColor=#909090;fontColor=#1A1A1A;" parent="1" vertex="1">
          <mxGeometry x="550" y="-590" width="120" height="80" as="geometry" />
        </mxCell>
        <mxCell id="lsWeMRMcMJrD6qDPierP-58" value="Role" style="ellipse;whiteSpace=wrap;html=1;labelBackgroundColor=none;fillColor=#F5AB50;strokeColor=#909090;fontColor=#1A1A1A;" parent="1" vertex="1">
          <mxGeometry x="-230" y="50" width="120" height="80" as="geometry" />
        </mxCell>
        <mxCell id="lsWeMRMcMJrD6qDPierP-59" value="" style="endArrow=none;html=1;rounded=0;exitX=1;exitY=0.5;exitDx=0;exitDy=0;entryX=0;entryY=0.5;entryDx=0;entryDy=0;labelBackgroundColor=none;strokeColor=#182E3E;fontColor=default;" parent="1" source="lsWeMRMcMJrD6qDPierP-58" target="lsWeMRMcMJrD6qDPierP-82" edge="1">
          <mxGeometry width="50" height="50" relative="1" as="geometry">
            <mxPoint x="-130" y="180" as="sourcePoint" />
            <mxPoint x="-170.00000000000728" y="60.00000000000023" as="targetPoint" />
          </mxGeometry>
        </mxCell>
        <mxCell id="lsWeMRMcMJrD6qDPierP-60" value="Senior" style="ellipse;whiteSpace=wrap;html=1;labelBackgroundColor=none;fillColor=#F5AB50;strokeColor=#909090;fontColor=#1A1A1A;" parent="1" vertex="1">
          <mxGeometry x="-610" y="20" width="120" height="80" as="geometry" />
        </mxCell>
        <mxCell id="lsWeMRMcMJrD6qDPierP-61" value="Adult" style="ellipse;whiteSpace=wrap;html=1;labelBackgroundColor=none;fillColor=#F5AB50;strokeColor=#909090;fontColor=#1A1A1A;" parent="1" vertex="1">
          <mxGeometry x="-470" y="-30" width="120" height="80" as="geometry" />
        </mxCell>
        <mxCell id="lsWeMRMcMJrD6qDPierP-62" value="Child" style="ellipse;whiteSpace=wrap;html=1;labelBackgroundColor=none;fillColor=#F5AB50;strokeColor=#909090;fontColor=#1A1A1A;" parent="1" vertex="1">
          <mxGeometry x="-425" y="-155" width="120" height="80" as="geometry" />
        </mxCell>
        <mxCell id="lsWeMRMcMJrD6qDPierP-63" value="Student" style="ellipse;whiteSpace=wrap;html=1;labelBackgroundColor=none;fillColor=#F5AB50;strokeColor=#909090;fontColor=#1A1A1A;" parent="1" vertex="1">
          <mxGeometry x="-510" y="93" width="120" height="80" as="geometry" />
        </mxCell>
        <mxCell id="lsWeMRMcMJrD6qDPierP-64" value="Professor" style="ellipse;whiteSpace=wrap;html=1;labelBackgroundColor=none;fillColor=#F5AB50;strokeColor=#909090;fontColor=#1A1A1A;" parent="1" vertex="1">
          <mxGeometry x="-420" y="170" width="120" height="80" as="geometry" />
        </mxCell>
        <mxCell id="lsWeMRMcMJrD6qDPierP-68" value="" style="endArrow=none;html=1;rounded=0;entryX=1;entryY=1;entryDx=0;entryDy=0;exitX=0;exitY=0.5;exitDx=0;exitDy=0;labelBackgroundColor=none;strokeColor=#182E3E;fontColor=default;" parent="1" source="lsWeMRMcMJrD6qDPierP-58" target="lsWeMRMcMJrD6qDPierP-62" edge="1">
          <mxGeometry width="50" height="50" relative="1" as="geometry">
            <mxPoint x="-130" y="180" as="sourcePoint" />
            <mxPoint x="-80" y="130" as="targetPoint" />
          </mxGeometry>
        </mxCell>
        <mxCell id="lsWeMRMcMJrD6qDPierP-69" value="" style="endArrow=none;html=1;rounded=0;entryX=1;entryY=0.5;entryDx=0;entryDy=0;exitX=0;exitY=0.5;exitDx=0;exitDy=0;labelBackgroundColor=none;strokeColor=#182E3E;fontColor=default;" parent="1" source="lsWeMRMcMJrD6qDPierP-58" target="lsWeMRMcMJrD6qDPierP-61" edge="1">
          <mxGeometry width="50" height="50" relative="1" as="geometry">
            <mxPoint x="-130" y="180" as="sourcePoint" />
            <mxPoint x="-80" y="130" as="targetPoint" />
          </mxGeometry>
        </mxCell>
        <mxCell id="lsWeMRMcMJrD6qDPierP-70" value="" style="endArrow=none;html=1;rounded=0;entryX=1;entryY=0.5;entryDx=0;entryDy=0;exitX=0;exitY=0.5;exitDx=0;exitDy=0;labelBackgroundColor=none;strokeColor=#182E3E;fontColor=default;" parent="1" source="lsWeMRMcMJrD6qDPierP-58" target="lsWeMRMcMJrD6qDPierP-60" edge="1">
          <mxGeometry width="50" height="50" relative="1" as="geometry">
            <mxPoint x="-130" y="180" as="sourcePoint" />
            <mxPoint x="-80" y="130" as="targetPoint" />
          </mxGeometry>
        </mxCell>
        <mxCell id="lsWeMRMcMJrD6qDPierP-71" value="" style="endArrow=none;html=1;rounded=0;entryX=1;entryY=0;entryDx=0;entryDy=0;exitX=0;exitY=0.5;exitDx=0;exitDy=0;labelBackgroundColor=none;strokeColor=#182E3E;fontColor=default;" parent="1" source="lsWeMRMcMJrD6qDPierP-58" target="lsWeMRMcMJrD6qDPierP-63" edge="1">
          <mxGeometry width="50" height="50" relative="1" as="geometry">
            <mxPoint x="-130" y="180" as="sourcePoint" />
            <mxPoint x="-80" y="130" as="targetPoint" />
          </mxGeometry>
        </mxCell>
        <mxCell id="lsWeMRMcMJrD6qDPierP-72" value="" style="endArrow=none;html=1;rounded=0;entryX=1;entryY=0;entryDx=0;entryDy=0;exitX=0;exitY=0.5;exitDx=0;exitDy=0;labelBackgroundColor=none;strokeColor=#182E3E;fontColor=default;" parent="1" source="lsWeMRMcMJrD6qDPierP-58" target="lsWeMRMcMJrD6qDPierP-64" edge="1">
          <mxGeometry width="50" height="50" relative="1" as="geometry">
            <mxPoint x="-130" y="180" as="sourcePoint" />
            <mxPoint x="-80" y="130" as="targetPoint" />
          </mxGeometry>
        </mxCell>
        <mxCell id="lsWeMRMcMJrD6qDPierP-75" style="edgeStyle=orthogonalEdgeStyle;rounded=0;orthogonalLoop=1;jettySize=auto;html=1;exitX=0.5;exitY=1;exitDx=0;exitDy=0;labelBackgroundColor=none;strokeColor=#182E3E;fontColor=default;" parent="1" edge="1">
          <mxGeometry relative="1" as="geometry">
            <mxPoint x="-280" y="360" as="sourcePoint" />
            <mxPoint x="-280" y="360" as="targetPoint" />
          </mxGeometry>
        </mxCell>
        <mxCell id="lsWeMRMcMJrD6qDPierP-82" value="user" style="rounded=1;whiteSpace=wrap;html=1;labelBackgroundColor=none;fillColor=#F5AB50;strokeColor=#909090;fontColor=#1A1A1A;" parent="1" vertex="1">
          <mxGeometry x="10" y="60" width="120" height="50" as="geometry" />
        </mxCell>
        <mxCell id="lsWeMRMcMJrD6qDPierP-83" value="&lt;span style=&quot;font-weight: normal;&quot;&gt;staff&lt;/span&gt;" style="rounded=1;whiteSpace=wrap;html=1;labelBackgroundColor=none;fillColor=#F5AB50;strokeColor=#909090;fontColor=#1A1A1A;fontStyle=1" parent="1" vertex="1">
          <mxGeometry x="10" y="280" width="120" height="60" as="geometry" />
        </mxCell>
        <mxCell id="lsWeMRMcMJrD6qDPierP-84" value="media" style="rounded=1;whiteSpace=wrap;html=1;labelBackgroundColor=none;fillColor=#F5AB50;strokeColor=#909090;fontColor=#1A1A1A;" parent="1" vertex="1">
          <mxGeometry x="380" y="40" width="120" height="60" as="geometry" />
        </mxCell>
        <mxCell id="lsWeMRMcMJrD6qDPierP-85" value="book" style="rounded=1;whiteSpace=wrap;html=1;labelBackgroundColor=none;fillColor=#F5AB50;strokeColor=#909090;fontColor=#1A1A1A;" parent="1" vertex="1">
          <mxGeometry x="670" y="-265" width="120" height="60" as="geometry" />
        </mxCell>
        <mxCell id="lsWeMRMcMJrD6qDPierP-86" value="magazine" style="rounded=1;whiteSpace=wrap;html=1;labelBackgroundColor=none;fillColor=#F5AB50;strokeColor=#909090;fontColor=#1A1A1A;" parent="1" vertex="1">
          <mxGeometry x="810" y="-295" width="120" height="60" as="geometry" />
        </mxCell>
        <mxCell id="lsWeMRMcMJrD6qDPierP-87" value="movie" style="rounded=1;whiteSpace=wrap;html=1;labelBackgroundColor=none;fillColor=#F5AB50;strokeColor=#909090;fontColor=#1A1A1A;" parent="1" vertex="1">
          <mxGeometry x="950" y="-255" width="120" height="60" as="geometry" />
        </mxCell>
        <mxCell id="lsWeMRMcMJrD6qDPierP-88" value="Name" style="ellipse;whiteSpace=wrap;html=1;labelBackgroundColor=none;fillColor=#F5AB50;strokeColor=#909090;fontColor=#1A1A1A;" parent="1" vertex="1">
          <mxGeometry x="680" y="-140" width="120" height="80" as="geometry" />
        </mxCell>
        <mxCell id="lsWeMRMcMJrD6qDPierP-89" value="" style="endArrow=none;html=1;rounded=0;exitX=0.5;exitY=0;exitDx=0;exitDy=0;entryX=0.25;entryY=1;entryDx=0;entryDy=0;labelBackgroundColor=none;strokeColor=#182E3E;fontColor=default;" parent="1" source="lsWeMRMcMJrD6qDPierP-88" target="lsWeMRMcMJrD6qDPierP-85" edge="1">
          <mxGeometry width="50" height="50" relative="1" as="geometry">
            <mxPoint x="880" y="-105" as="sourcePoint" />
            <mxPoint x="930" y="-155" as="targetPoint" />
          </mxGeometry>
        </mxCell>
        <mxCell id="lsWeMRMcMJrD6qDPierP-90" value="Name" style="ellipse;whiteSpace=wrap;html=1;labelBackgroundColor=none;fillColor=#F5AB50;strokeColor=#909090;fontColor=#1A1A1A;" parent="1" vertex="1">
          <mxGeometry x="1155" y="-160" width="120" height="80" as="geometry" />
        </mxCell>
        <mxCell id="lsWeMRMcMJrD6qDPierP-91" value="" style="endArrow=none;html=1;rounded=0;entryX=0.75;entryY=1;entryDx=0;entryDy=0;exitX=0;exitY=0;exitDx=0;exitDy=0;labelBackgroundColor=none;strokeColor=#182E3E;fontColor=default;" parent="1" source="lsWeMRMcMJrD6qDPierP-90" target="lsWeMRMcMJrD6qDPierP-87" edge="1">
          <mxGeometry width="50" height="50" relative="1" as="geometry">
            <mxPoint x="880" y="-105" as="sourcePoint" />
            <mxPoint x="930" y="-155" as="targetPoint" />
          </mxGeometry>
        </mxCell>
        <mxCell id="lsWeMRMcMJrD6qDPierP-92" value="Name" style="ellipse;whiteSpace=wrap;html=1;labelBackgroundColor=none;fillColor=#F5AB50;strokeColor=#909090;fontColor=#1A1A1A;" parent="1" vertex="1">
          <mxGeometry x="860" y="-740" width="120" height="80" as="geometry" />
        </mxCell>
        <mxCell id="lsWeMRMcMJrD6qDPierP-93" value="" style="endArrow=none;html=1;rounded=0;entryX=0.5;entryY=1;entryDx=0;entryDy=0;exitX=0.5;exitY=0;exitDx=0;exitDy=0;labelBackgroundColor=none;strokeColor=#182E3E;fontColor=default;" parent="1" source="lsWeMRMcMJrD6qDPierP-86" target="lsWeMRMcMJrD6qDPierP-92" edge="1">
          <mxGeometry width="50" height="50" relative="1" as="geometry">
            <mxPoint x="880" y="-285" as="sourcePoint" />
            <mxPoint x="890" y="-445" as="targetPoint" />
          </mxGeometry>
        </mxCell>
        <mxCell id="lsWeMRMcMJrD6qDPierP-94" value="reserve" style="rhombus;whiteSpace=wrap;html=1;labelBackgroundColor=none;fillColor=#F5AB50;strokeColor=#909090;fontColor=#1A1A1A;" parent="1" vertex="1">
          <mxGeometry x="200" width="80" height="80" as="geometry" />
        </mxCell>
        <mxCell id="lsWeMRMcMJrD6qDPierP-95" value="pay" style="rhombus;whiteSpace=wrap;html=1;labelBackgroundColor=none;fillColor=#F5AB50;strokeColor=#909090;fontColor=#1A1A1A;" parent="1" vertex="1">
          <mxGeometry x="-30" y="160" width="80" height="80" as="geometry" />
        </mxCell>
        <mxCell id="lsWeMRMcMJrD6qDPierP-96" value="return" style="rhombus;whiteSpace=wrap;html=1;labelBackgroundColor=none;fillColor=#F5AB50;strokeColor=#909090;fontColor=#1A1A1A;" parent="1" vertex="1">
          <mxGeometry x="200" y="110" width="80" height="80" as="geometry" />
        </mxCell>
        <mxCell id="lsWeMRMcMJrD6qDPierP-98" value="" style="endArrow=none;html=1;rounded=0;strokeColor=#182E3E;fontColor=#1A1A1A;exitX=1;exitY=0.5;exitDx=0;exitDy=0;entryX=0;entryY=0.5;entryDx=0;entryDy=0;" parent="1" source="lsWeMRMcMJrD6qDPierP-82" target="lsWeMRMcMJrD6qDPierP-94" edge="1">
          <mxGeometry width="50" height="50" relative="1" as="geometry">
            <mxPoint x="330" y="120" as="sourcePoint" />
            <mxPoint x="380" y="70" as="targetPoint" />
          </mxGeometry>
        </mxCell>
        <mxCell id="Qz-s-i5MB10RdGnWVDxn-116" value="1,1" style="edgeLabel;html=1;align=center;verticalAlign=middle;resizable=0;points=[];" vertex="1" connectable="0" parent="lsWeMRMcMJrD6qDPierP-98">
          <mxGeometry x="0.2566" y="-1" relative="1" as="geometry">
            <mxPoint as="offset" />
          </mxGeometry>
        </mxCell>
        <mxCell id="lsWeMRMcMJrD6qDPierP-99" value="" style="endArrow=none;html=1;rounded=0;strokeColor=#182E3E;fontColor=#1A1A1A;entryX=1;entryY=0.5;entryDx=0;entryDy=0;exitX=0;exitY=0.5;exitDx=0;exitDy=0;" parent="1" source="lsWeMRMcMJrD6qDPierP-84" target="lsWeMRMcMJrD6qDPierP-94" edge="1">
          <mxGeometry width="50" height="50" relative="1" as="geometry">
            <mxPoint x="280" y="50" as="sourcePoint" />
            <mxPoint x="380" y="70" as="targetPoint" />
          </mxGeometry>
        </mxCell>
        <mxCell id="Qz-s-i5MB10RdGnWVDxn-120" value="0...*" style="edgeLabel;html=1;align=center;verticalAlign=middle;resizable=0;points=[];" vertex="1" connectable="0" parent="lsWeMRMcMJrD6qDPierP-99">
          <mxGeometry x="0.3165" y="-2" relative="1" as="geometry">
            <mxPoint as="offset" />
          </mxGeometry>
        </mxCell>
        <mxCell id="lsWeMRMcMJrD6qDPierP-100" value="" style="endArrow=none;html=1;rounded=0;strokeColor=#182E3E;fontColor=#1A1A1A;exitX=1;exitY=0.5;exitDx=0;exitDy=0;entryX=0;entryY=1;entryDx=0;entryDy=0;" parent="1" source="lsWeMRMcMJrD6qDPierP-96" target="lsWeMRMcMJrD6qDPierP-84" edge="1">
          <mxGeometry width="50" height="50" relative="1" as="geometry">
            <mxPoint x="330" y="120" as="sourcePoint" />
            <mxPoint x="280" y="100" as="targetPoint" />
          </mxGeometry>
        </mxCell>
        <mxCell id="Qz-s-i5MB10RdGnWVDxn-119" value="0...*" style="edgeLabel;html=1;align=center;verticalAlign=middle;resizable=0;points=[];" vertex="1" connectable="0" parent="lsWeMRMcMJrD6qDPierP-100">
          <mxGeometry x="-0.4417" y="-3" relative="1" as="geometry">
            <mxPoint as="offset" />
          </mxGeometry>
        </mxCell>
        <mxCell id="lsWeMRMcMJrD6qDPierP-101" value="" style="endArrow=none;html=1;rounded=0;strokeColor=#182E3E;fontColor=#1A1A1A;exitX=0;exitY=0.5;exitDx=0;exitDy=0;entryX=1;entryY=1;entryDx=0;entryDy=0;" parent="1" source="lsWeMRMcMJrD6qDPierP-96" target="lsWeMRMcMJrD6qDPierP-82" edge="1">
          <mxGeometry width="50" height="50" relative="1" as="geometry">
            <mxPoint x="330" y="120" as="sourcePoint" />
            <mxPoint x="380" y="70" as="targetPoint" />
          </mxGeometry>
        </mxCell>
        <mxCell id="fhu01G3mkJdW1RdEYnN0-5" value="admin" style="rounded=1;whiteSpace=wrap;html=1;labelBackgroundColor=none;fillColor=#F5AB50;strokeColor=#909090;fontColor=#1A1A1A;" parent="1" vertex="1">
          <mxGeometry x="10" y="490" width="120" height="60" as="geometry" />
        </mxCell>
        <mxCell id="fhu01G3mkJdW1RdEYnN0-6" value="manage" style="rhombus;whiteSpace=wrap;html=1;labelBackgroundColor=none;fillColor=#F5AB50;strokeColor=#909090;fontColor=#1A1A1A;" parent="1" vertex="1">
          <mxGeometry x="30" y="370" width="80" height="80" as="geometry" />
        </mxCell>
        <mxCell id="fhu01G3mkJdW1RdEYnN0-7" value="" style="endArrow=none;html=1;rounded=0;exitX=0.5;exitY=0;exitDx=0;exitDy=0;entryX=0.5;entryY=1;entryDx=0;entryDy=0;" parent="1" source="fhu01G3mkJdW1RdEYnN0-6" target="lsWeMRMcMJrD6qDPierP-83" edge="1">
          <mxGeometry width="50" height="50" relative="1" as="geometry">
            <mxPoint x="230" y="380" as="sourcePoint" />
            <mxPoint x="280" y="330" as="targetPoint" />
          </mxGeometry>
        </mxCell>
        <mxCell id="Qz-s-i5MB10RdGnWVDxn-147" value="0...*" style="edgeLabel;html=1;align=center;verticalAlign=middle;resizable=0;points=[];" vertex="1" connectable="0" parent="fhu01G3mkJdW1RdEYnN0-7">
          <mxGeometry x="0.0023" relative="1" as="geometry">
            <mxPoint as="offset" />
          </mxGeometry>
        </mxCell>
        <mxCell id="fhu01G3mkJdW1RdEYnN0-8" value="" style="endArrow=none;html=1;rounded=0;exitX=0.5;exitY=0;exitDx=0;exitDy=0;entryX=0.5;entryY=1;entryDx=0;entryDy=0;" parent="1" source="fhu01G3mkJdW1RdEYnN0-5" target="fhu01G3mkJdW1RdEYnN0-6" edge="1">
          <mxGeometry width="50" height="50" relative="1" as="geometry">
            <mxPoint x="230" y="380" as="sourcePoint" />
            <mxPoint x="280" y="330" as="targetPoint" />
          </mxGeometry>
        </mxCell>
        <mxCell id="Qz-s-i5MB10RdGnWVDxn-139" value="1,1" style="edgeLabel;html=1;align=center;verticalAlign=middle;resizable=0;points=[];" vertex="1" connectable="0" parent="fhu01G3mkJdW1RdEYnN0-8">
          <mxGeometry x="0.3379" relative="1" as="geometry">
            <mxPoint as="offset" />
          </mxGeometry>
        </mxCell>
        <mxCell id="fhu01G3mkJdW1RdEYnN0-10" value="Issue_Number" style="ellipse;whiteSpace=wrap;html=1;labelBackgroundColor=none;fillColor=#F5AB50;strokeColor=#909090;fontColor=#1A1A1A;" parent="1" vertex="1">
          <mxGeometry x="700" y="-560" width="120" height="80" as="geometry" />
        </mxCell>
        <mxCell id="fhu01G3mkJdW1RdEYnN0-11" value="" style="endArrow=none;html=1;rounded=0;entryX=1;entryY=1;entryDx=0;entryDy=0;exitX=0.5;exitY=0;exitDx=0;exitDy=0;" parent="1" source="lsWeMRMcMJrD6qDPierP-86" target="fhu01G3mkJdW1RdEYnN0-10" edge="1">
          <mxGeometry width="50" height="50" relative="1" as="geometry">
            <mxPoint x="800" y="-255" as="sourcePoint" />
            <mxPoint x="850" y="-305" as="targetPoint" />
          </mxGeometry>
        </mxCell>
        <mxCell id="fhu01G3mkJdW1RdEYnN0-15" value="Fees" style="ellipse;whiteSpace=wrap;html=1;labelBackgroundColor=none;fillColor=#F5AB50;strokeColor=#909090;fontColor=#1A1A1A;" parent="1" vertex="1">
          <mxGeometry x="-210" y="160" width="120" height="80" as="geometry" />
        </mxCell>
        <mxCell id="fhu01G3mkJdW1RdEYnN0-27" value="mange" style="rhombus;whiteSpace=wrap;html=1;labelBackgroundColor=none;fillColor=#F5AB50;strokeColor=#909090;fontColor=#1A1A1A;" parent="1" vertex="1">
          <mxGeometry x="70" y="160" width="80" height="80" as="geometry" />
        </mxCell>
        <mxCell id="fhu01G3mkJdW1RdEYnN0-28" value="" style="endArrow=none;html=1;rounded=0;exitX=0.5;exitY=0;exitDx=0;exitDy=0;entryX=0.5;entryY=1;entryDx=0;entryDy=0;" parent="1" source="lsWeMRMcMJrD6qDPierP-83" target="fhu01G3mkJdW1RdEYnN0-27" edge="1">
          <mxGeometry width="50" height="50" relative="1" as="geometry">
            <mxPoint x="330" y="190" as="sourcePoint" />
            <mxPoint x="380" y="140" as="targetPoint" />
          </mxGeometry>
        </mxCell>
        <mxCell id="Qz-s-i5MB10RdGnWVDxn-136" value="1,1" style="edgeLabel;html=1;align=center;verticalAlign=middle;resizable=0;points=[];" vertex="1" connectable="0" parent="fhu01G3mkJdW1RdEYnN0-28">
          <mxGeometry x="-0.0931" y="1" relative="1" as="geometry">
            <mxPoint as="offset" />
          </mxGeometry>
        </mxCell>
        <mxCell id="fhu01G3mkJdW1RdEYnN0-30" value="" style="endArrow=none;html=1;rounded=0;entryX=0.5;entryY=1;entryDx=0;entryDy=0;exitX=0.5;exitY=0;exitDx=0;exitDy=0;" parent="1" source="fhu01G3mkJdW1RdEYnN0-27" target="lsWeMRMcMJrD6qDPierP-82" edge="1">
          <mxGeometry width="50" height="50" relative="1" as="geometry">
            <mxPoint x="70" y="150" as="sourcePoint" />
            <mxPoint x="80" y="230" as="targetPoint" />
          </mxGeometry>
        </mxCell>
        <mxCell id="Qz-s-i5MB10RdGnWVDxn-137" value="0...*" style="edgeLabel;html=1;align=center;verticalAlign=middle;resizable=0;points=[];" vertex="1" connectable="0" parent="fhu01G3mkJdW1RdEYnN0-30">
          <mxGeometry x="-0.1366" y="2" relative="1" as="geometry">
            <mxPoint as="offset" />
          </mxGeometry>
        </mxCell>
        <mxCell id="Qz-s-i5MB10RdGnWVDxn-2" value="Check_Out_Date" style="ellipse;whiteSpace=wrap;html=1;labelBackgroundColor=none;fillColor=#F5AB50;strokeColor=#909090;fontColor=#1A1A1A;" vertex="1" parent="1">
          <mxGeometry x="230" y="-335" width="120" height="80" as="geometry" />
        </mxCell>
        <mxCell id="Qz-s-i5MB10RdGnWVDxn-5" value="Due_Date" style="ellipse;whiteSpace=wrap;html=1;labelBackgroundColor=none;fillColor=#F5AB50;strokeColor=#909090;fontColor=#1A1A1A;" vertex="1" parent="1">
          <mxGeometry x="330" y="-235" width="120" height="80" as="geometry" />
        </mxCell>
        <mxCell id="Qz-s-i5MB10RdGnWVDxn-10" value="" style="endArrow=none;html=1;rounded=0;entryX=0.5;entryY=1;entryDx=0;entryDy=0;exitX=0.5;exitY=0;exitDx=0;exitDy=0;" edge="1" parent="1" source="Qz-s-i5MB10RdGnWVDxn-37" target="Qz-s-i5MB10RdGnWVDxn-2">
          <mxGeometry width="50" height="50" relative="1" as="geometry">
            <mxPoint x="270" y="-300" as="sourcePoint" />
            <mxPoint x="130" y="-540" as="targetPoint" />
          </mxGeometry>
        </mxCell>
        <mxCell id="Qz-s-i5MB10RdGnWVDxn-126" value="1,1" style="edgeLabel;html=1;align=center;verticalAlign=middle;resizable=0;points=[];" vertex="1" connectable="0" parent="Qz-s-i5MB10RdGnWVDxn-10">
          <mxGeometry x="0.0713" y="-2" relative="1" as="geometry">
            <mxPoint x="1" as="offset" />
          </mxGeometry>
        </mxCell>
        <mxCell id="Qz-s-i5MB10RdGnWVDxn-11" value="&lt;u&gt;Check_Out ID&lt;/u&gt;" style="ellipse;whiteSpace=wrap;html=1;labelBackgroundColor=none;fillColor=#F5AB50;strokeColor=#909090;fontColor=#1A1A1A;" vertex="1" parent="1">
          <mxGeometry x="60" y="-215" width="120" height="80" as="geometry" />
        </mxCell>
        <mxCell id="Qz-s-i5MB10RdGnWVDxn-16" value="" style="endArrow=none;html=1;rounded=0;exitX=1;exitY=1;exitDx=0;exitDy=0;entryX=0.5;entryY=0;entryDx=0;entryDy=0;" edge="1" parent="1" source="Qz-s-i5MB10RdGnWVDxn-11" target="Qz-s-i5MB10RdGnWVDxn-37">
          <mxGeometry width="50" height="50" relative="1" as="geometry">
            <mxPoint x="400" y="-610" as="sourcePoint" />
            <mxPoint x="180" y="-230" as="targetPoint" />
          </mxGeometry>
        </mxCell>
        <mxCell id="Qz-s-i5MB10RdGnWVDxn-124" value="1,1" style="edgeLabel;html=1;align=center;verticalAlign=middle;resizable=0;points=[];" vertex="1" connectable="0" parent="Qz-s-i5MB10RdGnWVDxn-16">
          <mxGeometry x="-0.0891" y="2" relative="1" as="geometry">
            <mxPoint as="offset" />
          </mxGeometry>
        </mxCell>
        <mxCell id="Qz-s-i5MB10RdGnWVDxn-17" value="" style="endArrow=none;html=1;rounded=0;entryX=0;entryY=1;entryDx=0;entryDy=0;exitX=0.5;exitY=0;exitDx=0;exitDy=0;" edge="1" parent="1" source="Qz-s-i5MB10RdGnWVDxn-37" target="Qz-s-i5MB10RdGnWVDxn-5">
          <mxGeometry width="50" height="50" relative="1" as="geometry">
            <mxPoint x="300" y="-270" as="sourcePoint" />
            <mxPoint x="450" y="-660" as="targetPoint" />
          </mxGeometry>
        </mxCell>
        <mxCell id="Qz-s-i5MB10RdGnWVDxn-127" value="1,1" style="edgeLabel;html=1;align=center;verticalAlign=middle;resizable=0;points=[];" vertex="1" connectable="0" parent="Qz-s-i5MB10RdGnWVDxn-17">
          <mxGeometry x="0.1621" y="-1" relative="1" as="geometry">
            <mxPoint as="offset" />
          </mxGeometry>
        </mxCell>
        <mxCell id="Qz-s-i5MB10RdGnWVDxn-30" value="User_ID" style="ellipse;whiteSpace=wrap;html=1;labelBackgroundColor=none;fillColor=#F5AB50;strokeColor=#909090;fontColor=#1A1A1A;" vertex="1" parent="1">
          <mxGeometry x="90" y="-330" width="120" height="80" as="geometry" />
        </mxCell>
        <mxCell id="Qz-s-i5MB10RdGnWVDxn-31" value="" style="endArrow=none;html=1;rounded=0;exitX=0.5;exitY=1;exitDx=0;exitDy=0;entryX=0.5;entryY=0;entryDx=0;entryDy=0;" edge="1" parent="1" source="Qz-s-i5MB10RdGnWVDxn-30" target="Qz-s-i5MB10RdGnWVDxn-37">
          <mxGeometry width="50" height="50" relative="1" as="geometry">
            <mxPoint x="160" y="-470" as="sourcePoint" />
            <mxPoint x="240" y="-300" as="targetPoint" />
          </mxGeometry>
        </mxCell>
        <mxCell id="Qz-s-i5MB10RdGnWVDxn-125" value="1,1" style="edgeLabel;html=1;align=center;verticalAlign=middle;resizable=0;points=[];" vertex="1" connectable="0" parent="Qz-s-i5MB10RdGnWVDxn-31">
          <mxGeometry x="0.1171" y="3" relative="1" as="geometry">
            <mxPoint as="offset" />
          </mxGeometry>
        </mxCell>
        <mxCell id="Qz-s-i5MB10RdGnWVDxn-33" value="Staff_Privilege" style="ellipse;whiteSpace=wrap;html=1;labelBackgroundColor=none;fillColor=#F5AB50;strokeColor=#909090;fontColor=#1A1A1A;" vertex="1" parent="1">
          <mxGeometry x="-170" y="270" width="120" height="80" as="geometry" />
        </mxCell>
        <mxCell id="Qz-s-i5MB10RdGnWVDxn-34" value="" style="endArrow=none;html=1;rounded=0;exitX=1;exitY=0.5;exitDx=0;exitDy=0;entryX=0;entryY=0.5;entryDx=0;entryDy=0;" edge="1" parent="1" source="Qz-s-i5MB10RdGnWVDxn-33" target="lsWeMRMcMJrD6qDPierP-83">
          <mxGeometry width="50" height="50" relative="1" as="geometry">
            <mxPoint x="160" y="240" as="sourcePoint" />
            <mxPoint x="210" y="190" as="targetPoint" />
          </mxGeometry>
        </mxCell>
        <mxCell id="Qz-s-i5MB10RdGnWVDxn-35" value="Admin_Privilege" style="ellipse;whiteSpace=wrap;html=1;labelBackgroundColor=none;fillColor=#F5AB50;strokeColor=#909090;fontColor=#1A1A1A;" vertex="1" parent="1">
          <mxGeometry x="-180" y="480" width="120" height="80" as="geometry" />
        </mxCell>
        <mxCell id="Qz-s-i5MB10RdGnWVDxn-36" value="" style="endArrow=none;html=1;rounded=0;exitX=1;exitY=0.5;exitDx=0;exitDy=0;entryX=0;entryY=0.5;entryDx=0;entryDy=0;" edge="1" parent="1" source="Qz-s-i5MB10RdGnWVDxn-35" target="fhu01G3mkJdW1RdEYnN0-5">
          <mxGeometry width="50" height="50" relative="1" as="geometry">
            <mxPoint x="160" y="240" as="sourcePoint" />
            <mxPoint x="210" y="190" as="targetPoint" />
          </mxGeometry>
        </mxCell>
        <mxCell id="Qz-s-i5MB10RdGnWVDxn-37" value="check_out" style="rhombus;whiteSpace=wrap;html=1;labelBackgroundColor=none;fillColor=#F5AB50;strokeColor=#909090;fontColor=#1A1A1A;" vertex="1" parent="1">
          <mxGeometry x="200" y="-100" width="80" height="80" as="geometry" />
        </mxCell>
        <mxCell id="Qz-s-i5MB10RdGnWVDxn-41" value="" style="endArrow=none;html=1;rounded=0;exitX=1;exitY=0;exitDx=0;exitDy=0;entryX=0;entryY=1;entryDx=0;entryDy=0;" edge="1" parent="1" source="lsWeMRMcMJrD6qDPierP-82" target="Qz-s-i5MB10RdGnWVDxn-37">
          <mxGeometry width="50" height="50" relative="1" as="geometry">
            <mxPoint x="150" y="60" as="sourcePoint" />
            <mxPoint x="200" y="10" as="targetPoint" />
          </mxGeometry>
        </mxCell>
        <mxCell id="Qz-s-i5MB10RdGnWVDxn-115" value="1,1" style="edgeLabel;html=1;align=center;verticalAlign=middle;resizable=0;points=[];" vertex="1" connectable="0" parent="Qz-s-i5MB10RdGnWVDxn-41">
          <mxGeometry x="-0.1592" y="-2" relative="1" as="geometry">
            <mxPoint as="offset" />
          </mxGeometry>
        </mxCell>
        <mxCell id="Qz-s-i5MB10RdGnWVDxn-42" value="" style="endArrow=none;html=1;rounded=0;entryX=1;entryY=1;entryDx=0;entryDy=0;exitX=0;exitY=0;exitDx=0;exitDy=0;" edge="1" parent="1" source="lsWeMRMcMJrD6qDPierP-84" target="Qz-s-i5MB10RdGnWVDxn-37">
          <mxGeometry width="50" height="50" relative="1" as="geometry">
            <mxPoint x="150" y="60" as="sourcePoint" />
            <mxPoint x="200" y="10" as="targetPoint" />
          </mxGeometry>
        </mxCell>
        <mxCell id="Qz-s-i5MB10RdGnWVDxn-121" value="0...*" style="edgeLabel;html=1;align=center;verticalAlign=middle;resizable=0;points=[];" vertex="1" connectable="0" parent="Qz-s-i5MB10RdGnWVDxn-42">
          <mxGeometry x="0.0186" y="-1" relative="1" as="geometry">
            <mxPoint as="offset" />
          </mxGeometry>
        </mxCell>
        <mxCell id="Qz-s-i5MB10RdGnWVDxn-45" value="Return_Date" style="ellipse;whiteSpace=wrap;html=1;labelBackgroundColor=none;fillColor=#F5AB50;strokeColor=#909090;fontColor=#1A1A1A;" vertex="1" parent="1">
          <mxGeometry x="410" y="170" width="120" height="80" as="geometry" />
        </mxCell>
        <mxCell id="Qz-s-i5MB10RdGnWVDxn-46" value="" style="endArrow=none;html=1;rounded=0;entryX=0;entryY=0.5;entryDx=0;entryDy=0;exitX=1;exitY=1;exitDx=0;exitDy=0;" edge="1" parent="1" source="lsWeMRMcMJrD6qDPierP-96" target="Qz-s-i5MB10RdGnWVDxn-45">
          <mxGeometry width="50" height="50" relative="1" as="geometry">
            <mxPoint x="150" y="160" as="sourcePoint" />
            <mxPoint x="200" y="110" as="targetPoint" />
          </mxGeometry>
        </mxCell>
        <mxCell id="Qz-s-i5MB10RdGnWVDxn-123" value="1,1" style="edgeLabel;html=1;align=center;verticalAlign=middle;resizable=0;points=[];" vertex="1" connectable="0" parent="Qz-s-i5MB10RdGnWVDxn-46">
          <mxGeometry x="0.3361" y="-2" relative="1" as="geometry">
            <mxPoint x="-18" y="-3" as="offset" />
          </mxGeometry>
        </mxCell>
        <mxCell id="Qz-s-i5MB10RdGnWVDxn-48" value="Reserved" style="ellipse;whiteSpace=wrap;html=1;labelBackgroundColor=none;fillColor=#F5AB50;strokeColor=#909090;fontColor=#1A1A1A;" vertex="1" parent="1">
          <mxGeometry x="500" y="-490" width="120" height="80" as="geometry" />
        </mxCell>
        <mxCell id="Qz-s-i5MB10RdGnWVDxn-52" value="digital_media" style="rounded=1;whiteSpace=wrap;html=1;labelBackgroundColor=none;fillColor=#F5AB50;strokeColor=#909090;fontColor=#1A1A1A;" vertex="1" parent="1">
          <mxGeometry x="500" y="280" width="120" height="60" as="geometry" />
        </mxCell>
        <mxCell id="Qz-s-i5MB10RdGnWVDxn-53" value="&lt;u&gt;Digital_Media_ID&lt;/u&gt;" style="ellipse;whiteSpace=wrap;html=1;labelBackgroundColor=none;fillColor=#F5AB50;strokeColor=#909090;fontColor=#1A1A1A;" vertex="1" parent="1">
          <mxGeometry x="700" y="270" width="120" height="80" as="geometry" />
        </mxCell>
        <mxCell id="Qz-s-i5MB10RdGnWVDxn-54" value="" style="endArrow=none;html=1;rounded=0;exitX=1;exitY=0.5;exitDx=0;exitDy=0;entryX=0;entryY=0.5;entryDx=0;entryDy=0;" edge="1" parent="1" source="Qz-s-i5MB10RdGnWVDxn-52" target="Qz-s-i5MB10RdGnWVDxn-53">
          <mxGeometry width="50" height="50" relative="1" as="geometry">
            <mxPoint x="830" y="160" as="sourcePoint" />
            <mxPoint x="880" y="110" as="targetPoint" />
          </mxGeometry>
        </mxCell>
        <mxCell id="Qz-s-i5MB10RdGnWVDxn-55" value="File_Type" style="ellipse;whiteSpace=wrap;html=1;labelBackgroundColor=none;fillColor=#F5AB50;strokeColor=#909090;fontColor=#1A1A1A;" vertex="1" parent="1">
          <mxGeometry x="500" y="390" width="120" height="80" as="geometry" />
        </mxCell>
        <mxCell id="Qz-s-i5MB10RdGnWVDxn-57" value="PDF" style="ellipse;whiteSpace=wrap;html=1;labelBackgroundColor=none;fillColor=#F5AB50;strokeColor=#909090;fontColor=#1A1A1A;" vertex="1" parent="1">
          <mxGeometry x="670" y="510" width="120" height="80" as="geometry" />
        </mxCell>
        <mxCell id="Qz-s-i5MB10RdGnWVDxn-58" value="docx" style="ellipse;whiteSpace=wrap;html=1;labelBackgroundColor=none;fillColor=#F5AB50;strokeColor=#909090;fontColor=#1A1A1A;" vertex="1" parent="1">
          <mxGeometry x="600" y="600" width="120" height="80" as="geometry" />
        </mxCell>
        <mxCell id="Qz-s-i5MB10RdGnWVDxn-60" value="txt" style="ellipse;whiteSpace=wrap;html=1;labelBackgroundColor=none;fillColor=#F5AB50;strokeColor=#909090;fontColor=#1A1A1A;" vertex="1" parent="1">
          <mxGeometry x="500" y="495" width="120" height="80" as="geometry" />
        </mxCell>
        <mxCell id="Qz-s-i5MB10RdGnWVDxn-61" value="" style="endArrow=none;html=1;rounded=0;exitX=0.5;exitY=1;exitDx=0;exitDy=0;entryX=0.5;entryY=0;entryDx=0;entryDy=0;" edge="1" parent="1" source="Qz-s-i5MB10RdGnWVDxn-55" target="Qz-s-i5MB10RdGnWVDxn-60">
          <mxGeometry width="50" height="50" relative="1" as="geometry">
            <mxPoint x="500" y="140" as="sourcePoint" />
            <mxPoint x="550" y="90" as="targetPoint" />
          </mxGeometry>
        </mxCell>
        <mxCell id="Qz-s-i5MB10RdGnWVDxn-62" value="" style="endArrow=none;html=1;rounded=0;exitX=1;exitY=1;exitDx=0;exitDy=0;entryX=0.5;entryY=0;entryDx=0;entryDy=0;" edge="1" parent="1" source="Qz-s-i5MB10RdGnWVDxn-55" target="Qz-s-i5MB10RdGnWVDxn-58">
          <mxGeometry width="50" height="50" relative="1" as="geometry">
            <mxPoint x="500" y="140" as="sourcePoint" />
            <mxPoint x="550" y="90" as="targetPoint" />
          </mxGeometry>
        </mxCell>
        <mxCell id="Qz-s-i5MB10RdGnWVDxn-63" value="" style="endArrow=none;html=1;rounded=0;entryX=0;entryY=0;entryDx=0;entryDy=0;exitX=1;exitY=1;exitDx=0;exitDy=0;" edge="1" parent="1" source="Qz-s-i5MB10RdGnWVDxn-55" target="Qz-s-i5MB10RdGnWVDxn-57">
          <mxGeometry width="50" height="50" relative="1" as="geometry">
            <mxPoint x="510" y="190" as="sourcePoint" />
            <mxPoint x="550" y="90" as="targetPoint" />
          </mxGeometry>
        </mxCell>
        <mxCell id="Qz-s-i5MB10RdGnWVDxn-64" value="" style="endArrow=none;html=1;rounded=0;exitX=0.5;exitY=1;exitDx=0;exitDy=0;entryX=0.5;entryY=0;entryDx=0;entryDy=0;" edge="1" parent="1" source="Qz-s-i5MB10RdGnWVDxn-52" target="Qz-s-i5MB10RdGnWVDxn-55">
          <mxGeometry width="50" height="50" relative="1" as="geometry">
            <mxPoint x="710" y="310" as="sourcePoint" />
            <mxPoint x="880" y="180" as="targetPoint" />
          </mxGeometry>
        </mxCell>
        <mxCell id="Qz-s-i5MB10RdGnWVDxn-66" value="mp4" style="ellipse;whiteSpace=wrap;html=1;labelBackgroundColor=none;fillColor=#F5AB50;strokeColor=#909090;fontColor=#1A1A1A;" vertex="1" parent="1">
          <mxGeometry x="400" y="570" width="120" height="80" as="geometry" />
        </mxCell>
        <mxCell id="Qz-s-i5MB10RdGnWVDxn-67" value="mp3" style="ellipse;whiteSpace=wrap;html=1;labelBackgroundColor=none;fillColor=#F5AB50;strokeColor=#909090;fontColor=#1A1A1A;" vertex="1" parent="1">
          <mxGeometry x="350" y="470" width="120" height="80" as="geometry" />
        </mxCell>
        <mxCell id="Qz-s-i5MB10RdGnWVDxn-68" value="" style="endArrow=none;html=1;rounded=0;exitX=1;exitY=0;exitDx=0;exitDy=0;entryX=0;entryY=1;entryDx=0;entryDy=0;" edge="1" parent="1" source="Qz-s-i5MB10RdGnWVDxn-67" target="Qz-s-i5MB10RdGnWVDxn-55">
          <mxGeometry width="50" height="50" relative="1" as="geometry">
            <mxPoint x="500" y="100" as="sourcePoint" />
            <mxPoint x="550" y="50" as="targetPoint" />
          </mxGeometry>
        </mxCell>
        <mxCell id="Qz-s-i5MB10RdGnWVDxn-69" value="" style="endArrow=none;html=1;rounded=0;exitX=0.5;exitY=0;exitDx=0;exitDy=0;entryX=0;entryY=1;entryDx=0;entryDy=0;" edge="1" parent="1" source="Qz-s-i5MB10RdGnWVDxn-66" target="Qz-s-i5MB10RdGnWVDxn-55">
          <mxGeometry width="50" height="50" relative="1" as="geometry">
            <mxPoint x="500" y="100" as="sourcePoint" />
            <mxPoint x="550" y="50" as="targetPoint" />
          </mxGeometry>
        </mxCell>
        <mxCell id="Qz-s-i5MB10RdGnWVDxn-72" value="" style="endArrow=none;html=1;rounded=0;exitX=1;exitY=0.25;exitDx=0;exitDy=0;entryX=0.5;entryY=1;entryDx=0;entryDy=0;" edge="1" parent="1" source="lsWeMRMcMJrD6qDPierP-84" target="Qz-s-i5MB10RdGnWVDxn-89">
          <mxGeometry width="50" height="50" relative="1" as="geometry">
            <mxPoint x="1500" y="-140" as="sourcePoint" />
            <mxPoint x="800" y="-75" as="targetPoint" />
          </mxGeometry>
        </mxCell>
        <mxCell id="Qz-s-i5MB10RdGnWVDxn-128" value="1,1" style="edgeLabel;html=1;align=center;verticalAlign=middle;resizable=0;points=[];" vertex="1" connectable="0" parent="Qz-s-i5MB10RdGnWVDxn-72">
          <mxGeometry x="-0.1796" y="-1" relative="1" as="geometry">
            <mxPoint as="offset" />
          </mxGeometry>
        </mxCell>
        <mxCell id="Qz-s-i5MB10RdGnWVDxn-74" value="" style="endArrow=none;html=1;rounded=0;exitX=1;exitY=0;exitDx=0;exitDy=0;entryX=0.5;entryY=1;entryDx=0;entryDy=0;" edge="1" parent="1" source="Qz-s-i5MB10RdGnWVDxn-52" target="Qz-s-i5MB10RdGnWVDxn-89">
          <mxGeometry width="50" height="50" relative="1" as="geometry">
            <mxPoint x="1500" y="160" as="sourcePoint" />
            <mxPoint x="817.5735931288068" y="-46.715728752537416" as="targetPoint" />
          </mxGeometry>
        </mxCell>
        <mxCell id="Qz-s-i5MB10RdGnWVDxn-129" value="1,1" style="edgeLabel;html=1;align=center;verticalAlign=middle;resizable=0;points=[];" vertex="1" connectable="0" parent="Qz-s-i5MB10RdGnWVDxn-74">
          <mxGeometry x="-0.1649" y="2" relative="1" as="geometry">
            <mxPoint as="offset" />
          </mxGeometry>
        </mxCell>
        <mxCell id="Qz-s-i5MB10RdGnWVDxn-78" value="&lt;u&gt;Movie_ID&lt;/u&gt;" style="ellipse;whiteSpace=wrap;html=1;labelBackgroundColor=none;fillColor=#F5AB50;strokeColor=#909090;fontColor=#1A1A1A;" vertex="1" parent="1">
          <mxGeometry x="1220" y="-30" width="120" height="80" as="geometry" />
        </mxCell>
        <mxCell id="Qz-s-i5MB10RdGnWVDxn-79" value="&lt;u&gt;Mag_ID&lt;/u&gt;" style="ellipse;whiteSpace=wrap;html=1;labelBackgroundColor=none;fillColor=#F5AB50;strokeColor=#909090;fontColor=#1A1A1A;" vertex="1" parent="1">
          <mxGeometry x="750" y="-680" width="120" height="80" as="geometry" />
        </mxCell>
        <mxCell id="Qz-s-i5MB10RdGnWVDxn-80" value="&lt;u&gt;Book_ID&lt;/u&gt;" style="ellipse;whiteSpace=wrap;html=1;labelBackgroundColor=none;fillColor=#F5AB50;strokeColor=#909090;fontColor=#1A1A1A;" vertex="1" parent="1">
          <mxGeometry x="450" y="-305" width="120" height="80" as="geometry" />
        </mxCell>
        <mxCell id="Qz-s-i5MB10RdGnWVDxn-81" value="" style="endArrow=none;html=1;rounded=0;exitX=0;exitY=0;exitDx=0;exitDy=0;entryX=0.5;entryY=1;entryDx=0;entryDy=0;" edge="1" parent="1" source="Qz-s-i5MB10RdGnWVDxn-78" target="lsWeMRMcMJrD6qDPierP-87">
          <mxGeometry width="50" height="50" relative="1" as="geometry">
            <mxPoint x="1290" y="-85" as="sourcePoint" />
            <mxPoint x="1340" y="-135" as="targetPoint" />
          </mxGeometry>
        </mxCell>
        <mxCell id="Qz-s-i5MB10RdGnWVDxn-82" value="" style="endArrow=none;html=1;rounded=0;entryX=1;entryY=1;entryDx=0;entryDy=0;exitX=0;exitY=0.25;exitDx=0;exitDy=0;" edge="1" parent="1" source="lsWeMRMcMJrD6qDPierP-85" target="Qz-s-i5MB10RdGnWVDxn-80">
          <mxGeometry width="50" height="50" relative="1" as="geometry">
            <mxPoint x="1290" y="-85" as="sourcePoint" />
            <mxPoint x="1340" y="-135" as="targetPoint" />
          </mxGeometry>
        </mxCell>
        <mxCell id="Qz-s-i5MB10RdGnWVDxn-83" value="" style="endArrow=none;html=1;rounded=0;entryX=0.5;entryY=1;entryDx=0;entryDy=0;exitX=0.5;exitY=0;exitDx=0;exitDy=0;" edge="1" parent="1" source="lsWeMRMcMJrD6qDPierP-86" target="Qz-s-i5MB10RdGnWVDxn-79">
          <mxGeometry width="50" height="50" relative="1" as="geometry">
            <mxPoint x="1290" y="-85" as="sourcePoint" />
            <mxPoint x="1340" y="-135" as="targetPoint" />
          </mxGeometry>
        </mxCell>
        <mxCell id="Qz-s-i5MB10RdGnWVDxn-85" value="download" style="rhombus;whiteSpace=wrap;html=1;labelBackgroundColor=none;fillColor=#F5AB50;strokeColor=#909090;fontColor=#1A1A1A;" vertex="1" parent="1">
          <mxGeometry x="200" y="230" width="80" height="80" as="geometry" />
        </mxCell>
        <mxCell id="Qz-s-i5MB10RdGnWVDxn-86" value="" style="endArrow=none;html=1;rounded=0;entryX=1;entryY=1;entryDx=0;entryDy=0;exitX=0;exitY=0.5;exitDx=0;exitDy=0;" edge="1" parent="1" source="Qz-s-i5MB10RdGnWVDxn-85" target="lsWeMRMcMJrD6qDPierP-82">
          <mxGeometry width="50" height="50" relative="1" as="geometry">
            <mxPoint x="220" y="410" as="sourcePoint" />
            <mxPoint x="270" y="360" as="targetPoint" />
          </mxGeometry>
        </mxCell>
        <mxCell id="Qz-s-i5MB10RdGnWVDxn-118" value="1,1" style="edgeLabel;html=1;align=center;verticalAlign=middle;resizable=0;points=[];" vertex="1" connectable="0" parent="Qz-s-i5MB10RdGnWVDxn-86">
          <mxGeometry x="-0.193" y="1" relative="1" as="geometry">
            <mxPoint as="offset" />
          </mxGeometry>
        </mxCell>
        <mxCell id="Qz-s-i5MB10RdGnWVDxn-87" value="" style="endArrow=none;html=1;rounded=0;entryX=1;entryY=0.5;entryDx=0;entryDy=0;exitX=0;exitY=0.5;exitDx=0;exitDy=0;" edge="1" parent="1" source="Qz-s-i5MB10RdGnWVDxn-52" target="Qz-s-i5MB10RdGnWVDxn-85">
          <mxGeometry width="50" height="50" relative="1" as="geometry">
            <mxPoint x="220" y="410" as="sourcePoint" />
            <mxPoint x="270" y="360" as="targetPoint" />
          </mxGeometry>
        </mxCell>
        <mxCell id="Qz-s-i5MB10RdGnWVDxn-141" value="0...*" style="edgeLabel;html=1;align=center;verticalAlign=middle;resizable=0;points=[];" vertex="1" connectable="0" parent="Qz-s-i5MB10RdGnWVDxn-87">
          <mxGeometry x="0.1191" y="1" relative="1" as="geometry">
            <mxPoint as="offset" />
          </mxGeometry>
        </mxCell>
        <mxCell id="Qz-s-i5MB10RdGnWVDxn-89" value="is" style="rhombus;whiteSpace=wrap;html=1;labelBackgroundColor=none;fillColor=#F5AB50;strokeColor=#909090;fontColor=#1A1A1A;" vertex="1" parent="1">
          <mxGeometry x="810" y="-30" width="80" height="80" as="geometry" />
        </mxCell>
        <mxCell id="Qz-s-i5MB10RdGnWVDxn-92" value="Date_Published" style="ellipse;whiteSpace=wrap;html=1;labelBackgroundColor=none;fillColor=#F5AB50;strokeColor=#909090;fontColor=#1A1A1A;" vertex="1" parent="1">
          <mxGeometry x="980" y="-470" width="120" height="80" as="geometry" />
        </mxCell>
        <mxCell id="Qz-s-i5MB10RdGnWVDxn-93" value="Date_published" style="ellipse;whiteSpace=wrap;html=1;labelBackgroundColor=none;fillColor=#F5AB50;strokeColor=#909090;fontColor=#1A1A1A;" vertex="1" parent="1">
          <mxGeometry x="960" y="-90" width="120" height="80" as="geometry" />
        </mxCell>
        <mxCell id="Qz-s-i5MB10RdGnWVDxn-94" value="Reserved" style="ellipse;whiteSpace=wrap;html=1;labelBackgroundColor=none;fillColor=#F5AB50;strokeColor=#909090;fontColor=#1A1A1A;" vertex="1" parent="1">
          <mxGeometry x="930" y="-375" width="120" height="80" as="geometry" />
        </mxCell>
        <mxCell id="Qz-s-i5MB10RdGnWVDxn-95" value="Reserved" style="ellipse;whiteSpace=wrap;html=1;labelBackgroundColor=none;fillColor=#F5AB50;strokeColor=#909090;fontColor=#1A1A1A;" vertex="1" parent="1">
          <mxGeometry x="1090" y="-45" width="120" height="80" as="geometry" />
        </mxCell>
        <mxCell id="Qz-s-i5MB10RdGnWVDxn-97" value="" style="endArrow=none;html=1;rounded=0;exitX=0.5;exitY=0;exitDx=0;exitDy=0;entryX=0.5;entryY=1;entryDx=0;entryDy=0;" edge="1" parent="1" source="Qz-s-i5MB10RdGnWVDxn-93" target="lsWeMRMcMJrD6qDPierP-87">
          <mxGeometry width="50" height="50" relative="1" as="geometry">
            <mxPoint x="710" y="-180" as="sourcePoint" />
            <mxPoint x="760" y="-230" as="targetPoint" />
          </mxGeometry>
        </mxCell>
        <mxCell id="Qz-s-i5MB10RdGnWVDxn-98" value="" style="endArrow=none;html=1;rounded=0;exitX=0.5;exitY=0;exitDx=0;exitDy=0;entryX=0.5;entryY=1;entryDx=0;entryDy=0;" edge="1" parent="1" source="Qz-s-i5MB10RdGnWVDxn-95" target="lsWeMRMcMJrD6qDPierP-87">
          <mxGeometry width="50" height="50" relative="1" as="geometry">
            <mxPoint x="710" y="-180" as="sourcePoint" />
            <mxPoint x="760" y="-230" as="targetPoint" />
          </mxGeometry>
        </mxCell>
        <mxCell id="Qz-s-i5MB10RdGnWVDxn-99" value="" style="endArrow=none;html=1;rounded=0;entryX=0.5;entryY=1;entryDx=0;entryDy=0;exitX=0.25;exitY=0;exitDx=0;exitDy=0;" edge="1" parent="1" source="lsWeMRMcMJrD6qDPierP-85" target="lsWeMRMcMJrD6qDPierP-56">
          <mxGeometry width="50" height="50" relative="1" as="geometry">
            <mxPoint x="710" y="-220" as="sourcePoint" />
            <mxPoint x="760" y="-270" as="targetPoint" />
          </mxGeometry>
        </mxCell>
        <mxCell id="Qz-s-i5MB10RdGnWVDxn-100" value="" style="endArrow=none;html=1;rounded=0;entryX=1;entryY=1;entryDx=0;entryDy=0;exitX=0.25;exitY=0;exitDx=0;exitDy=0;" edge="1" parent="1" source="lsWeMRMcMJrD6qDPierP-85" target="Qz-s-i5MB10RdGnWVDxn-48">
          <mxGeometry width="50" height="50" relative="1" as="geometry">
            <mxPoint x="710" y="-220" as="sourcePoint" />
            <mxPoint x="760" y="-270" as="targetPoint" />
          </mxGeometry>
        </mxCell>
        <mxCell id="Qz-s-i5MB10RdGnWVDxn-102" value="" style="endArrow=none;html=1;rounded=0;entryX=0;entryY=1;entryDx=0;entryDy=0;exitX=1;exitY=0;exitDx=0;exitDy=0;" edge="1" parent="1" source="lsWeMRMcMJrD6qDPierP-86" target="Qz-s-i5MB10RdGnWVDxn-94">
          <mxGeometry width="50" height="50" relative="1" as="geometry">
            <mxPoint x="680" y="-280" as="sourcePoint" />
            <mxPoint x="730" y="-330" as="targetPoint" />
          </mxGeometry>
        </mxCell>
        <mxCell id="Qz-s-i5MB10RdGnWVDxn-103" value="" style="endArrow=none;html=1;rounded=0;entryX=0;entryY=0.5;entryDx=0;entryDy=0;exitX=0.5;exitY=0;exitDx=0;exitDy=0;" edge="1" parent="1" source="lsWeMRMcMJrD6qDPierP-86" target="Qz-s-i5MB10RdGnWVDxn-92">
          <mxGeometry width="50" height="50" relative="1" as="geometry">
            <mxPoint x="680" y="-280" as="sourcePoint" />
            <mxPoint x="730" y="-330" as="targetPoint" />
          </mxGeometry>
        </mxCell>
        <mxCell id="Qz-s-i5MB10RdGnWVDxn-104" value="add_to" style="rhombus;whiteSpace=wrap;html=1;labelBackgroundColor=none;fillColor=#F5AB50;strokeColor=#909090;fontColor=#1A1A1A;" vertex="1" parent="1">
          <mxGeometry x="200" y="370" width="80" height="80" as="geometry" />
        </mxCell>
        <mxCell id="Qz-s-i5MB10RdGnWVDxn-105" value="" style="endArrow=none;html=1;rounded=0;exitX=1;exitY=0.5;exitDx=0;exitDy=0;entryX=0;entryY=0.5;entryDx=0;entryDy=0;" edge="1" parent="1" source="lsWeMRMcMJrD6qDPierP-83" target="Qz-s-i5MB10RdGnWVDxn-104">
          <mxGeometry width="50" height="50" relative="1" as="geometry">
            <mxPoint x="490" y="100" as="sourcePoint" />
            <mxPoint x="540" y="50" as="targetPoint" />
          </mxGeometry>
        </mxCell>
        <mxCell id="Qz-s-i5MB10RdGnWVDxn-135" value="1,1" style="edgeLabel;html=1;align=center;verticalAlign=middle;resizable=0;points=[];" vertex="1" connectable="0" parent="Qz-s-i5MB10RdGnWVDxn-105">
          <mxGeometry x="-0.1197" y="-2" relative="1" as="geometry">
            <mxPoint as="offset" />
          </mxGeometry>
        </mxCell>
        <mxCell id="Qz-s-i5MB10RdGnWVDxn-106" value="" style="endArrow=none;html=1;rounded=0;exitX=1;exitY=0.5;exitDx=0;exitDy=0;entryX=0;entryY=1;entryDx=0;entryDy=0;" edge="1" parent="1" source="Qz-s-i5MB10RdGnWVDxn-104" target="Qz-s-i5MB10RdGnWVDxn-52">
          <mxGeometry width="50" height="50" relative="1" as="geometry">
            <mxPoint x="490" y="100" as="sourcePoint" />
            <mxPoint x="540" y="50" as="targetPoint" />
          </mxGeometry>
        </mxCell>
        <mxCell id="Qz-s-i5MB10RdGnWVDxn-134" value="0...*" style="edgeLabel;html=1;align=center;verticalAlign=middle;resizable=0;points=[];" vertex="1" connectable="0" parent="Qz-s-i5MB10RdGnWVDxn-106">
          <mxGeometry x="-0.0373" y="-1" relative="1" as="geometry">
            <mxPoint as="offset" />
          </mxGeometry>
        </mxCell>
        <mxCell id="Qz-s-i5MB10RdGnWVDxn-107" value="" style="endArrow=none;html=1;rounded=0;exitX=1;exitY=0.5;exitDx=0;exitDy=0;entryX=0.25;entryY=1;entryDx=0;entryDy=0;" edge="1" parent="1" source="Qz-s-i5MB10RdGnWVDxn-104" target="lsWeMRMcMJrD6qDPierP-84">
          <mxGeometry width="50" height="50" relative="1" as="geometry">
            <mxPoint x="490" y="100" as="sourcePoint" />
            <mxPoint x="540" y="50" as="targetPoint" />
          </mxGeometry>
        </mxCell>
        <mxCell id="Qz-s-i5MB10RdGnWVDxn-133" value="0...*" style="edgeLabel;html=1;align=center;verticalAlign=middle;resizable=0;points=[];" vertex="1" connectable="0" parent="Qz-s-i5MB10RdGnWVDxn-107">
          <mxGeometry x="-0.5926" y="-1" relative="1" as="geometry">
            <mxPoint as="offset" />
          </mxGeometry>
        </mxCell>
        <mxCell id="Qz-s-i5MB10RdGnWVDxn-108" value="&lt;u&gt;Staff_ID&lt;/u&gt;" style="ellipse;whiteSpace=wrap;html=1;labelBackgroundColor=none;fillColor=#F5AB50;strokeColor=#909090;fontColor=#1A1A1A;" vertex="1" parent="1">
          <mxGeometry x="-190" y="370" width="120" height="80" as="geometry" />
        </mxCell>
        <mxCell id="Qz-s-i5MB10RdGnWVDxn-109" value="" style="endArrow=none;html=1;rounded=0;exitX=1;exitY=0.5;exitDx=0;exitDy=0;entryX=0;entryY=0.5;entryDx=0;entryDy=0;" edge="1" parent="1" source="Qz-s-i5MB10RdGnWVDxn-108" target="lsWeMRMcMJrD6qDPierP-83">
          <mxGeometry width="50" height="50" relative="1" as="geometry">
            <mxPoint x="390" y="270" as="sourcePoint" />
            <mxPoint x="440" y="220" as="targetPoint" />
          </mxGeometry>
        </mxCell>
        <mxCell id="Qz-s-i5MB10RdGnWVDxn-110" value="" style="endArrow=none;html=1;rounded=0;exitX=1;exitY=0.5;exitDx=0;exitDy=0;entryX=0;entryY=0.5;entryDx=0;entryDy=0;" edge="1" parent="1" source="Qz-s-i5MB10RdGnWVDxn-108" target="fhu01G3mkJdW1RdEYnN0-5">
          <mxGeometry width="50" height="50" relative="1" as="geometry">
            <mxPoint x="390" y="270" as="sourcePoint" />
            <mxPoint x="440" y="220" as="targetPoint" />
          </mxGeometry>
        </mxCell>
        <mxCell id="Qz-s-i5MB10RdGnWVDxn-111" value="" style="endArrow=none;html=1;rounded=0;exitX=1;exitY=0.5;exitDx=0;exitDy=0;entryX=0;entryY=1;entryDx=0;entryDy=0;" edge="1" parent="1" source="lsWeMRMcMJrD6qDPierP-83" target="lsWeMRMcMJrD6qDPierP-96">
          <mxGeometry width="50" height="50" relative="1" as="geometry">
            <mxPoint x="390" y="270" as="sourcePoint" />
            <mxPoint x="440" y="220" as="targetPoint" />
          </mxGeometry>
        </mxCell>
        <mxCell id="Qz-s-i5MB10RdGnWVDxn-117" value="1,1" style="text;html=1;align=center;verticalAlign=middle;resizable=0;points=[];autosize=1;strokeColor=none;fillColor=none;" vertex="1" parent="1">
          <mxGeometry x="160" y="118" width="40" height="30" as="geometry" />
        </mxCell>
        <mxCell id="Qz-s-i5MB10RdGnWVDxn-148" value="Publisher" style="ellipse;whiteSpace=wrap;html=1;labelBackgroundColor=none;fillColor=#F5AB50;strokeColor=#909090;fontColor=#1A1A1A;" vertex="1" parent="1">
          <mxGeometry x="1220" y="-345" width="120" height="80" as="geometry" />
        </mxCell>
        <mxCell id="Qz-s-i5MB10RdGnWVDxn-149" value="" style="endArrow=none;html=1;rounded=0;exitX=1;exitY=0;exitDx=0;exitDy=0;entryX=0;entryY=0.5;entryDx=0;entryDy=0;" edge="1" parent="1" source="lsWeMRMcMJrD6qDPierP-87" target="Qz-s-i5MB10RdGnWVDxn-148">
          <mxGeometry width="50" height="50" relative="1" as="geometry">
            <mxPoint x="870" y="-340" as="sourcePoint" />
            <mxPoint x="920" y="-390" as="targetPoint" />
          </mxGeometry>
        </mxCell>
        <mxCell id="Qz-s-i5MB10RdGnWVDxn-151" value="" style="endArrow=none;html=1;rounded=0;exitX=1;exitY=0.5;exitDx=0;exitDy=0;entryX=0;entryY=0.5;entryDx=0;entryDy=0;" edge="1" parent="1" source="fhu01G3mkJdW1RdEYnN0-15" target="lsWeMRMcMJrD6qDPierP-95">
          <mxGeometry width="50" height="50" relative="1" as="geometry">
            <mxPoint x="280" y="70" as="sourcePoint" />
            <mxPoint x="330" y="20" as="targetPoint" />
          </mxGeometry>
        </mxCell>
        <mxCell id="Qz-s-i5MB10RdGnWVDxn-156" value="0...*" style="edgeLabel;html=1;align=center;verticalAlign=middle;resizable=0;points=[];" vertex="1" connectable="0" parent="Qz-s-i5MB10RdGnWVDxn-151">
          <mxGeometry y="-4" relative="1" as="geometry">
            <mxPoint as="offset" />
          </mxGeometry>
        </mxCell>
        <mxCell id="Qz-s-i5MB10RdGnWVDxn-152" value="" style="endArrow=none;html=1;rounded=0;exitX=0.5;exitY=0;exitDx=0;exitDy=0;entryX=0.25;entryY=1;entryDx=0;entryDy=0;" edge="1" parent="1" source="lsWeMRMcMJrD6qDPierP-95" target="lsWeMRMcMJrD6qDPierP-82">
          <mxGeometry width="50" height="50" relative="1" as="geometry">
            <mxPoint x="280" y="70" as="sourcePoint" />
            <mxPoint x="330" y="20" as="targetPoint" />
          </mxGeometry>
        </mxCell>
        <mxCell id="Qz-s-i5MB10RdGnWVDxn-154" value="1,1" style="edgeLabel;html=1;align=center;verticalAlign=middle;resizable=0;points=[];" vertex="1" connectable="0" parent="Qz-s-i5MB10RdGnWVDxn-152">
          <mxGeometry x="0.0392" y="-1" relative="1" as="geometry">
            <mxPoint as="offset" />
          </mxGeometry>
        </mxCell>
        <mxCell id="Qz-s-i5MB10RdGnWVDxn-153" value="" style="endArrow=none;html=1;rounded=0;exitX=0.25;exitY=0;exitDx=0;exitDy=0;entryX=0.5;entryY=1;entryDx=0;entryDy=0;" edge="1" parent="1" source="lsWeMRMcMJrD6qDPierP-83" target="lsWeMRMcMJrD6qDPierP-95">
          <mxGeometry width="50" height="50" relative="1" as="geometry">
            <mxPoint x="280" y="70" as="sourcePoint" />
            <mxPoint x="330" y="20" as="targetPoint" />
          </mxGeometry>
        </mxCell>
        <mxCell id="Qz-s-i5MB10RdGnWVDxn-155" value="1,1" style="edgeLabel;html=1;align=center;verticalAlign=middle;resizable=0;points=[];" vertex="1" connectable="0" parent="Qz-s-i5MB10RdGnWVDxn-153">
          <mxGeometry x="-0.0493" y="-2" relative="1" as="geometry">
            <mxPoint as="offset" />
          </mxGeometry>
        </mxCell>
      </root>
    </mxGraphModel>
  </diagram>
</mxfile>
